<svg xmlns="http://www.w3.org/2000/svg" width="34" height="237" viewBox="0 0 34 237" fill="none">
    <path d="M44.7368 7.89476L44.7368 5.26318L3.8147e-06 5.26318L3.69967e-06 7.89476L44.7368 7.89476Z" fill="white"/>
    <path d="M44.7368 2.63158L44.7368 0L3.8147e-06 -1.95551e-06L3.69967e-06 2.63158L44.7368 2.63158Z" fill="white"/>
    <path d="M44.7368 110.526L44.7368 105.263L0 105.263L-2.3006e-07 110.526L44.7368 110.526Z" fill="white"/>
    <path d="M44.7368 99.9996L44.7368 92.1049L0 92.1049L-3.4509e-07 99.9996L44.7368 99.9996Z" fill="white"/>
    <path d="M44.7368 86.8417L44.7368 84.2101L0 84.2101L-1.1503e-07 86.8417L44.7368 86.8417Z" fill="white"/>
    <path d="M44.7368 49.9996L44.7368 47.368L3.8147e-06 47.368L3.69967e-06 49.9996L44.7368 49.9996Z" fill="white"/>
    <path d="M44.7368 44.7364L44.7368 42.1049L3.8147e-06 42.1049L3.69967e-06 44.7364L44.7368 44.7364Z" fill="white"/>
    <path d="M44.7368 81.5785L44.7368 78.947L0 78.947L-1.1503e-07 81.5785L44.7368 81.5785Z" fill="white"/>
    <path d="M44.7368 118.421L44.7368 113.157L0 113.157L-2.3006e-07 118.421L44.7368 118.421Z" fill="white"/>
    <path d="M44.7368 39.4732L44.7368 34.2101L3.8147e-06 34.2101L3.58464e-06 39.4732L44.7368 39.4732Z" fill="white"/>
    <path d="M44.7368 76.3154L44.7368 71.0522L0 71.0522L-2.3006e-07 76.3154L44.7368 76.3154Z" fill="white"/>
    <path d="M44.7368 26.3154L44.7368 23.6838L3.8147e-06 23.6838L3.69967e-06 26.3154L44.7368 26.3154Z" fill="white"/>
    <path d="M44.7368 63.1575L44.7368 55.2628L3.8147e-06 55.2628L3.46961e-06 63.1575L44.7368 63.1575Z" fill="white"/>
    <path d="M44.7368 21.0522L44.7368 15.7891L3.8147e-06 15.7891L3.58464e-06 21.0522L44.7368 21.0522Z" fill="white"/>
    <path d="M44.7368 236.842L44.7368 231.579L0 231.579L-2.3006e-07 236.842L44.7368 236.842Z" fill="white"/>
    <path d="M44.7368 207.895L44.7368 205.263L0 205.263L-1.1503e-07 207.895L44.7368 207.895Z" fill="white"/>
    <path d="M44.7368 194.737L44.7368 192.105L0 192.105L-1.1503e-07 194.737L44.7368 194.737Z" fill="white"/>
    <path d="M44.7368 189.474L44.7368 186.842L0 186.842L-1.1503e-07 189.474L44.7368 189.474Z" fill="white"/>
    <path d="M44.7368 171.053L44.7368 168.421L3.8147e-06 168.421L3.69967e-06 171.053L44.7368 171.053Z" fill="white"/>
    <path d="M44.7368 228.948L44.7368 223.684L0 223.684L-2.3006e-07 228.948L44.7368 228.948Z" fill="white"/>
    <path d="M44.7368 165.79L44.7368 163.158L3.8147e-06 163.158L3.69967e-06 165.79L44.7368 165.79Z" fill="white"/>
    <path d="M44.7368 218.421L44.7368 215.79L0 215.79L-1.1503e-07 218.421L44.7368 218.421Z" fill="white"/>
    <path d="M44.7368 157.895L44.7368 150L3.8147e-06 150L3.46961e-06 157.895L44.7368 157.895Z" fill="white"/>
    <path d="M44.7368 147.369L44.7368 142.105L3.8147e-06 142.105L3.58464e-06 147.369L44.7368 147.369Z" fill="white"/>
    <path d="M44.7368 184.211L44.7368 176.316L0 176.316L-3.4509e-07 184.211L44.7368 184.211Z" fill="white"/>
    <path d="M44.7368 136.842L44.7368 131.579L3.8147e-06 131.579L3.58464e-06 136.842L44.7368 136.842Z" fill="white"/>
</svg>