<svg width="16" height="16" viewBox="0 0 16 16" fill="none" xmlns="http://www.w3.org/2000/svg">
<path fill-rule="evenodd" clip-rule="evenodd" d="M5.99828 10.0026C5.78295 10.0026 5.57161 9.89861 5.44295 9.70594C5.23828 9.39994 5.32095 8.98594 5.62761 8.78128L7.33361 7.64328V4.67594C7.33361 4.30728 7.63161 4.00928 8.00028 4.00928C8.36895 4.00928 8.66695 4.30728 8.66695 4.67594V7.99994C8.66695 8.22261 8.55562 8.43128 8.37028 8.55461L6.36761 9.89061C6.25428 9.96594 6.12495 10.0026 5.99828 10.0026Z" fill="#A1A3A7"/>
<path fill-rule="evenodd" clip-rule="evenodd" d="M8.00016 2.66665C5.0595 2.66665 2.66683 5.05931 2.66683 7.99998C2.66683 10.9406 5.0595 13.3333 8.00016 13.3333C10.9408 13.3333 13.3335 10.9406 13.3335 7.99998C13.3335 5.05931 10.9408 2.66665 8.00016 2.66665ZM8.00016 14.6666C4.32416 14.6666 1.3335 11.676 1.3335 7.99998C1.3335 4.32398 4.32416 1.33331 8.00016 1.33331C11.6762 1.33331 14.6668 4.32398 14.6668 7.99998C14.6668 11.676 11.6762 14.6666 8.00016 14.6666Z" fill="#A1A3A7"/>
</svg>
