<svg width="88" height="99" viewBox="0 0 88 99" fill="none" xmlns="http://www.w3.org/2000/svg">
<path d="M34.6021 58L40.3621 50.064L34.6021 42.128H38.9861L43.0181 47.76L47.0181 42.128H51.4341L45.6421 50.064L51.4341 58H47.0181L43.0181 52.368L38.9861 58H34.6021Z" fill="#303033"/>
<path fill-rule="evenodd" clip-rule="evenodd" d="M39.8086 2.06163C40.626 0.767356 42.0165 0 43.5332 0C45.9485 0 47.92 1.96179 47.9258 4.3778L47.9259 4.38021C47.9259 7.13245 47.9685 11.0398 48.081 15.445C48.3749 26.9508 60.7766 34.0724 70.8784 28.531C73.8092 26.9234 76.9907 25.1333 80.4456 23.1424L80.4544 23.1373L80.6096 23.0521L80.6209 23.0462C81.2902 22.7003 82.0682 22.5276 82.8019 22.5596C84.3196 22.6186 85.6814 23.4348 86.4419 24.7476L86.4435 24.7505C87.6039 26.7688 86.9843 29.3319 85.0678 30.6015L85.0566 30.6089L84.85 30.7379L84.8349 30.7466C82.4661 32.1126 79.128 34.0864 75.3929 36.3688C65.531 42.397 65.5646 56.7252 75.4525 62.7123C78.2909 64.4321 81.4118 66.2762 84.8375 68.2536L84.8525 68.2622L85.0523 68.387C85.5369 68.6935 85.9683 69.1264 86.2991 69.6246L86.8019 70.1228V70.6477C87.2035 71.8338 87.0842 73.1379 86.4451 74.2462L86.4446 74.2471C85.3612 76.1214 83.1009 76.8965 81.134 76.1757H81.0036L80.4462 75.857L80.4431 75.8552C78.0741 74.4891 74.6934 72.587 70.8482 70.4979C60.6899 64.9769 48.2814 72.1751 48.036 83.7217C47.9663 87.0384 47.9259 90.6614 47.9259 94.6108V94.6279L47.9185 94.8429L47.9182 94.8512C47.888 95.5631 47.6563 96.2968 47.2608 96.9312L47.2535 96.9429L47.1325 97.1256L47.1247 97.1366C46.3018 98.3086 44.9711 99 43.5332 99C41.1131 99 39.1434 97.0378 39.1405 94.6187V94.6175C39.1405 91.8653 39.0978 87.9602 38.9854 83.555C38.6914 72.0491 26.2898 64.9276 16.1879 70.469C13.2588 72.0769 10.0752 73.8648 6.62117 75.8573L6.60916 75.8643L6.45142 75.9495L6.44321 75.9538C5.76592 76.3038 5.01366 76.4609 4.27843 76.4408L4.26783 76.4405C2.65992 76.3795 1.22749 75.4661 0.499752 74.0208C-0.571079 71.8902 0.337839 69.3493 2.3274 68.1999C4.69461 66.8313 8.00144 64.8753 11.6914 62.6199C21.5455 56.5985 21.5537 42.3036 11.686 36.3282C8.82678 34.5969 5.6836 32.7371 2.23154 30.7467L2.21769 30.7387L2.06212 30.6422C1.42274 30.2339 0.901084 29.6659 0.548089 29.0015L0.546734 28.9989C-0.162559 27.6544 -0.134549 26.0652 0.623656 24.7513C1.83198 22.6608 4.51428 21.9357 6.61414 23.139L6.6171 23.1407C9.00103 24.5175 12.4108 26.4329 16.2857 28.5381C26.4087 34.0392 38.7828 26.867 39.0281 15.3615C39.1 12.0226 39.1405 8.37236 39.1428 4.38865V4.21036L39.1439 4.18682C39.1665 3.70721 39.2672 3.09926 39.4424 2.65319L39.8086 2.06163ZM74.3528 34.6606C78.0923 32.3755 81.4376 30.3972 83.8206 29.0228L83.9735 28.9273C85.004 28.237 85.34 26.8461 84.7107 25.7492C84.2957 25.0335 83.5595 24.59 82.7224 24.558L82.7162 24.5578C82.3415 24.5411 81.9133 24.6321 81.5494 24.8177L81.4354 24.8804C77.9732 26.8754 74.7823 28.6708 71.8403 30.2845C60.4282 36.5446 46.4139 28.5024 46.0816 15.4961C45.9688 11.0756 45.9259 7.1516 45.9259 4.38123V4.38021L45.9259 4.38263L45.9259 4.38123C45.9219 3.07109 44.8479 2 43.5332 2C42.7083 2 41.9553 2.41057 41.5018 3.12609L41.5044 3.12194L41.4424 3.08354H41.4766L41.4424 3.09337L41.4187 3.14844L41.4424 3.1875L41.4305 3.23435L41.3906 3.26046H41.4187L41.3528 3.40543C41.2304 3.67469 41.1594 3.96359 41.1428 4.25955V4.23393L41.1417 4.28105C41.142 4.27388 41.1424 4.26671 41.1428 4.25955V4.38922C41.1405 8.3857 41.0999 12.0503 41.0276 15.4043C40.7502 28.4109 26.7669 36.5101 15.3309 30.2954C11.4438 28.1837 8.01942 26.2602 5.61858 24.8736L5.61978 24.8743L6.11696 24.0066L5.61682 24.8726L5.61858 24.8736C4.47468 24.2189 3.01243 24.6153 2.35565 25.7514C1.94299 26.4669 1.92575 27.3255 2.315 28.0644C2.50622 28.4239 2.78889 28.7319 3.1335 28.9533L3.24445 29.022C6.70294 31.0164 9.85387 32.8807 12.7219 34.6174C23.8815 41.3751 23.8581 57.5292 12.7344 64.3265C9.03083 66.5901 5.71005 68.5544 3.32845 69.9314C2.17814 70.5958 1.73099 72.016 2.28608 73.1213C2.68395 73.9115 3.45701 74.4065 4.33853 74.4417C4.75197 74.4522 5.16174 74.363 5.51742 74.1809L5.63384 74.118C9.09558 72.121 12.2877 70.3285 15.2258 68.7156C26.6379 62.4555 40.6524 70.4975 40.9847 83.5039C41.0976 87.9243 41.1405 91.846 41.1405 94.6163C41.1421 95.9286 42.2136 97 43.5332 97C44.3169 97 45.0328 96.6286 45.4809 95.9973L45.5703 95.8624C45.7871 95.5104 45.9045 95.1158 45.9198 94.7698L45.92 94.7664L45.9259 94.5937C45.926 90.6372 45.9666 87.0058 46.0365 83.6795C46.3137 70.6329 60.3304 62.5052 71.8031 68.7406C75.6612 70.8367 79.0558 72.7465 81.44 74.1213L81.4422 74.1226L81.5599 74.1899L81.7132 74.2548C82.806 74.7174 84.1034 74.3009 84.7131 73.2462C85.0805 72.6085 85.1323 71.8595 84.8701 71.1862L84.8019 71.0111V70.9566L84.7316 70.8869L84.67 70.7884C84.4774 70.4803 84.2281 70.2327 83.9852 70.0785L83.9832 70.0773L83.8227 69.9771C80.3923 67.9968 77.2642 66.1485 74.4163 64.423C63.2464 57.6594 63.208 41.47 74.3528 34.6606ZM41.4997 3.12954L41.4424 3.09337V3.20825L41.4187 3.26046L41.4997 3.12954Z" fill="#3C3C3C"/>
</svg>
