<svg width="282" height="13" viewBox="0 0 282 13" fill="none" xmlns="http://www.w3.org/2000/svg">
<path d="M272.605 13L275.738 13L275.738 7.62939e-06L272.605 7.459e-06L272.605 13Z" fill="white"/>
<path d="M278.871 13L282.005 13L282.005 7.62939e-06L278.871 7.459e-06L278.871 13Z" fill="white"/>
<path d="M150.403 13L156.67 13L156.67 7.62939e-06L150.403 7.28861e-06L150.403 13Z" fill="white"/>
<path d="M162.937 13L172.337 13L172.337 7.62939e-06L162.937 7.11822e-06L162.937 13Z" fill="white"/>
<path d="M178.604 13L181.737 13L181.737 7.62939e-06L178.604 7.459e-06L178.604 13Z" fill="white"/>
<path d="M222.471 13L225.604 13L225.604 7.62939e-06L222.471 7.459e-06L222.471 13Z" fill="white"/>
<path d="M228.738 13L231.871 13L231.871 7.62939e-06L228.738 7.459e-06L228.738 13Z" fill="white"/>
<path d="M184.871 13L188.004 13L188.004 7.62939e-06L184.871 7.459e-06L184.871 13Z" fill="white"/>
<path d="M141.003 13L147.27 13L147.27 7.62939e-06L141.003 7.28861e-06L141.003 13Z" fill="white"/>
<path d="M235.005 13L241.271 13L241.271 7.62939e-06L235.005 7.28861e-06L235.005 13Z" fill="white"/>
<path d="M191.137 13L197.404 13L197.404 7.62939e-06L191.137 7.28861e-06L191.137 13Z" fill="white"/>
<path d="M250.672 13L253.805 13L253.805 7.62939e-06L250.672 7.459e-06L250.672 13Z" fill="white"/>
<path d="M206.804 13L216.204 13L216.204 7.62939e-06L206.804 7.11822e-06L206.804 13Z" fill="white"/>
<path d="M256.938 13L263.205 13L263.205 7.62939e-06L256.938 7.28861e-06L256.938 13Z" fill="white"/>
<path d="M-0.000418186 13L6.26636 13L6.26636 7.62939e-06L-0.00041529 7.28861e-06L-0.000418186 13Z" fill="white"/>
<path d="M34.4667 13L37.6001 13L37.6001 7.62939e-06L34.4667 7.459e-06L34.4667 13Z" fill="white"/>
<path d="M50.1337 13L53.2671 13L53.2671 7.62939e-06L50.1337 7.459e-06L50.1337 13Z" fill="white"/>
<path d="M56.4005 13L59.5339 13L59.5339 7.62939e-06L56.4006 7.459e-06L56.4005 13Z" fill="white"/>
<path d="M78.3341 13L81.4675 13L81.4675 7.62939e-06L78.3341 7.459e-06L78.3341 13Z" fill="white"/>
<path d="M9.39973 13L15.6665 13L15.6665 7.62939e-06L9.39973 7.28861e-06L9.39973 13Z" fill="white"/>
<path d="M84.601 13L87.7344 13L87.7344 7.62939e-06L84.601 7.459e-06L84.601 13Z" fill="white"/>
<path d="M21.9333 13L25.0667 13L25.0667 7.62939e-06L21.9333 7.459e-06L21.9333 13Z" fill="white"/>
<path d="M94.0012 13L103.401 13L103.401 7.62939e-06L94.0012 7.11822e-06L94.0012 13Z" fill="white"/>
<path d="M106.535 13L112.802 13L112.802 7.62939e-06L106.535 7.28861e-06L106.535 13Z" fill="white"/>
<path d="M62.6672 13L72.0674 13L72.0674 7.62939e-06L62.6672 7.11822e-06L62.6672 13Z" fill="white"/>
<path d="M119.068 13L125.335 13L125.335 7.62939e-06L119.068 7.28861e-06L119.068 13Z" fill="white"/>
</svg>
