<svg width="27" height="27" viewBox="0 0 27 27" fill="none" xmlns="http://www.w3.org/2000/svg">
  <path d="M20.3585 14.3384C21.4907 14.1632 22.7644 13.9634 24.1938 13.7538C24.4869 13.711 24.4869 13.2883 24.1938 13.2455C22.7644 13.0359 21.4907 12.8361 20.3585 12.6609C19.3357 12.5025 18.8569 11.3058 19.4892 10.4871C21.3848 8.03142 23.7543 4.67359 26.9454 0.41355C27.1234 0.175908 26.8234 -0.124124 26.5857 0.0539323C22.3256 3.24493 18.9684 5.61434 16.512 7.50987C15.6932 8.14218 14.4958 7.66269 14.3381 6.64062C14.1628 5.50849 13.963 4.23475 13.7534 2.8054C13.7107 2.51237 13.2879 2.51237 13.2452 2.8054C13.0356 4.23475 12.8358 5.50849 12.6605 6.64062C12.5021 7.66339 11.3054 8.14218 10.4866 7.50987C8.03093 5.61504 4.67371 3.24563 0.413561 0.0546333C0.175913 -0.123423 -0.124127 0.176609 0.0539337 0.414251C3.24501 4.67429 5.61449 8.03142 7.51007 10.4878C8.14239 11.3065 7.66289 12.5039 6.64079 12.6616C5.50863 12.8368 4.23486 13.0366 2.80547 13.2462C2.51244 13.289 2.51244 13.7117 2.80547 13.7545C4.23486 13.9641 5.50863 14.1639 6.64079 14.3391C7.66359 14.4975 8.14239 15.6942 7.51007 16.5129C5.61449 18.9686 3.24501 22.3264 0.0539337 26.5864C-0.124127 26.8241 0.175913 27.1241 0.413561 26.9461C4.67371 23.7551 8.03093 21.3857 10.4873 19.4901C11.3061 18.8578 12.5035 19.3373 12.6612 20.3594C12.8365 21.4915 13.0363 22.7652 13.2459 24.1946C13.2886 24.4876 13.7114 24.4876 13.7541 24.1946C13.9637 22.7652 14.1635 21.4915 14.3388 20.3594C14.4972 19.3366 15.6939 18.8578 16.5127 19.4901C18.9684 21.3857 22.3263 23.7551 26.5864 26.9461C26.8241 27.1241 27.1241 26.8241 26.9461 26.5864C23.755 22.3264 21.3855 18.9693 19.4899 16.5129C18.8576 15.6942 19.3371 14.4968 20.3592 14.3391L20.3585 14.3384Z" fill="#FFDA1A"/>
</svg>