<svg xmlns="http://www.w3.org/2000/svg" width="31" height="31" fill="none" viewBox="0 0 31 31">
  <path fill="#FFDA1A" d="M28.462 12.962h-6.835L26.46 8.13a2.538 2.538 0 0 0-3.589-3.59l-4.833 4.834V2.538a2.538 2.538 0 1 0-5.076 0v6.835L8.13 4.54a2.538 2.538 0 0 0-3.59 3.589l4.834 4.833H2.538a2.538 2.538 0 1 0 0 5.076h6.835L4.54 22.87a2.538 2.538 0 0 0 3.589 3.59l4.833-4.834v6.835a2.538 2.538 0 1 0 5.076 0v-6.835l4.833 4.833a2.538 2.538 0 0 0 3.59-3.589l-4.834-4.833h6.835a2.538 2.538 0 1 0 0-5.076Z"/>
</svg>