<svg width="23" height="23" viewBox="0 0 23 23" fill="none" xmlns="http://www.w3.org/2000/svg">
<path d="M17.3424 12.2142C18.3069 12.0649 19.3919 11.8947 20.6096 11.7162C20.8592 11.6797 20.8592 11.3197 20.6096 11.2832C19.3919 11.1047 18.3069 10.9345 17.3424 10.7852C16.4712 10.6502 16.0633 9.6309 16.6019 8.93342C18.2167 6.84158 20.2351 3.9812 22.9535 0.352284C23.1051 0.149848 22.8496 -0.105735 22.6471 0.0459423C19.0181 2.7642 16.1582 4.78259 14.0657 6.3973C13.3683 6.93593 12.3483 6.52748 12.2139 5.65682C12.0646 4.69242 11.8944 3.60738 11.7159 2.38978C11.6795 2.14017 11.3194 2.14017 11.2829 2.38978C11.1044 3.60738 10.9342 4.69242 10.7849 5.65682C10.6499 6.52808 9.63055 6.93593 8.93306 6.3973C6.84116 4.78318 3.98131 2.7648 0.352293 0.0465395C0.149851 -0.105138 -0.105738 0.150445 0.0459435 0.352881C2.76427 3.9818 4.78271 6.84158 6.39746 8.93402C6.93611 9.6315 6.52765 10.6514 5.65697 10.7858C4.69254 10.9351 3.60748 11.1053 2.38984 11.2838C2.14023 11.3203 2.14023 11.6803 2.38984 11.7168C3.60748 11.8953 4.69254 12.0655 5.65697 12.2148C6.52824 12.3498 6.93611 13.3691 6.39746 14.0666C4.78271 16.1584 2.76427 19.0188 0.0459435 22.6477C-0.105738 22.8501 0.149851 23.1057 0.352293 22.9541C3.98131 20.2358 6.84116 18.2174 8.93365 16.6027C9.63115 16.0641 10.6511 16.4725 10.7855 17.3432C10.9348 18.3076 11.105 19.3926 11.2835 20.6102C11.32 20.8598 11.68 20.8598 11.7165 20.6102C11.895 19.3926 12.0652 18.3076 12.2145 17.3432C12.3495 16.4719 13.3688 16.0641 14.0663 16.6027C16.1582 18.2174 19.0187 20.2358 22.6477 22.9541C22.8501 23.1057 23.1057 22.8501 22.9541 22.6477C20.2357 19.0188 18.2173 16.159 16.6025 14.0666C16.0639 13.3691 16.4724 12.3492 17.343 12.2148L17.3424 12.2142Z" fill="#D2D2D2"/>
</svg>
