<svg width="28" height="28" viewBox="0 0 28 28" fill="none" xmlns="http://www.w3.org/2000/svg">
  <path d="M15.7248 9.93261L14.2502 0.214979C14.2068 -0.0716595 13.7932 -0.0716595 13.7498 0.214979L12.2752 9.93261C12.2498 10.1003 12.07 10.1959 11.917 10.123L9.15154 8.81479C8.93706 8.71323 8.71323 8.93706 8.81479 9.15154L10.123 11.917C10.1952 12.07 10.0997 12.2498 9.93262 12.2752L0.214979 13.7498C-0.0716595 13.7932 -0.0716595 14.2068 0.214979 14.2502L9.93262 15.7248C10.1003 15.7502 10.1959 15.93 10.123 16.083L8.81479 18.8485C8.71323 19.0629 8.93706 19.2868 9.15154 19.1852L11.917 17.877C12.07 17.8048 12.2498 17.9004 12.2752 18.0674L13.7498 27.785C13.7932 28.0717 14.2068 28.0717 14.2502 27.785L15.7248 18.0674C15.7502 17.8997 15.93 17.8041 16.083 17.877L18.8485 19.1852C19.0629 19.2868 19.2868 19.0629 19.1852 18.8485L17.877 16.083C17.8048 15.93 17.9004 15.7502 18.0674 15.7248L27.785 14.2502C28.0717 14.2068 28.0717 13.7932 27.785 13.7498L18.0674 12.2752C17.8997 12.2498 17.8041 12.07 17.877 11.917L19.1852 9.15154C19.2868 8.93706 19.0629 8.71323 18.8485 8.81479L16.083 10.123C15.93 10.1952 15.7502 10.0997 15.7248 9.93261Z" fill="#D2D2D2"/>
</svg>