<svg width="23" height="23" viewBox="0 0 15 17" fill="none" xmlns="http://www.w3.org/2000/svg">
<path d="M13.0301 6.04912C13.6904 5.64839 14.2808 5.3017 14.7002 5.0615L14.732 5.04178C14.9928 4.87021 15.0775 4.52313 14.9192 4.2498C14.8155 4.07192 14.6302 3.96149 14.4223 3.9536C14.3241 3.94926 14.2172 3.97253 14.1257 4.01947L14.1019 4.03248C13.4913 4.38193 12.9287 4.69628 12.4103 4.97868C10.512 6.01283 8.18122 4.68405 8.12596 2.53608C8.10608 1.76263 8.09853 1.07635 8.09853 0.592409C8.09774 0.265835 7.82899 0 7.49983 0C7.2931 0 7.10387 0.103336 6.99176 0.279639L6.95439 0.33959V0.349056C6.92298 0.417684 6.90509 0.491439 6.90152 0.566772V0.593986C6.90112 1.29328 6.89396 1.9342 6.88124 2.52069C6.83513 4.66867 4.50947 6.00691 2.60721 4.98026C1.92224 4.61069 1.31916 4.27426 0.896962 4.03209C0.610728 3.86919 0.244985 3.9674 0.0804006 4.2502C-0.0229617 4.42808 -0.0269376 4.64264 0.070064 4.82525C0.118167 4.91518 0.189328 4.99209 0.276391 5.04731L0.29945 5.0615C0.909685 5.41095 1.46546 5.73753 1.97114 6.04162C3.82649 7.15742 3.8237 9.82562 1.97272 10.9489C1.32035 11.3449 0.735559 11.6884 0.316544 11.929C0.0394533 12.088 -0.0802082 12.4351 0.0633063 12.7186C0.162693 12.9147 0.357491 13.0381 0.577335 13.0464C0.679107 13.0492 0.782072 13.0275 0.873508 12.9805L0.897758 12.9675C1.50839 12.6177 2.07132 12.3037 2.58932 12.0213C4.48761 10.9872 6.81843 12.3159 6.87369 14.4639C6.89357 15.2374 6.90112 15.9233 6.90112 16.4072C6.90152 16.7342 7.16986 17 7.49983 17C7.69621 17 7.8771 16.9065 7.98921 16.748L8.00789 16.72C8.06235 16.6332 8.09336 16.5338 8.09734 16.4407L8.09853 16.406C8.09853 15.7126 8.10569 15.0764 8.11801 14.4939C8.16413 12.3388 10.4957 10.9958 12.4044 12.0261C13.0842 12.3929 13.6821 12.7269 14.1015 12.9671L14.1591 12.9999H14.1687C14.4426 13.115 14.767 13.0117 14.9196 12.7494C15.0115 12.5912 15.0246 12.4043 14.959 12.2371V12.1874L14.9089 12.1381C14.862 12.0635 14.7996 12.0004 14.7324 11.9582L14.7006 11.9385C14.0951 11.5914 13.5433 11.2676 13.0412 10.9655C11.1831 9.8481 11.1767 7.17359 13.0305 6.04872L13.0301 6.04912Z" fill="#C68200"/>
</svg>
