<svg width="27" height="27" viewBox="0 0 27 27" fill="none" xmlns="http://www.w3.org/2000/svg">
<path d="M17.6318 15.2113C21.0292 13.5017 27 13.5 27 13.5C27 13.5 21.0292 13.4983 17.6318 11.7887C18.8249 8.1773 23.0458 3.95421 23.0458 3.95421C23.0458 3.95421 18.8227 8.17506 15.2113 9.36822C13.5017 5.97081 13.5 0 13.5 0C13.5 0 13.4983 5.97081 11.7887 9.36822C8.1773 8.17506 3.9542 3.95421 3.9542 3.95421C3.9542 3.95421 8.17506 8.1773 9.36822 11.7887C5.97081 13.4983 0 13.5 0 13.5C0 13.5 5.97081 13.5017 9.36822 15.2113C8.17506 18.8227 3.9542 23.0458 3.9542 23.0458C3.9542 23.0458 8.1773 18.8249 11.7887 17.6318C13.4983 21.0292 13.5 27 13.5 27C13.5 27 13.5017 21.0292 15.2113 17.6318C18.8227 18.8249 23.0458 23.0458 23.0458 23.0458C23.0458 23.0458 18.8249 18.8227 17.6318 15.2113Z" fill="#12FF80"/>
</svg>
