<svg width="80" height="54" viewBox="0 0 80 54" fill="none" xmlns="http://www.w3.org/2000/svg">
  <path opacity="0.8" d="M30.9382 15.2376V21.661C30.9382 22.0565 31.2707 22.2206 31.3742 22.2579C31.4776 22.3026 31.8249 22.3996 32.1351 22.1087L36.9634 17.4389C37.3746 17.0413 37.7714 16.6233 38.0696 16.1342C38.21 15.9043 38.2681 15.7747 38.2681 15.7747C38.5637 15.1705 38.5637 14.5886 38.2755 14.0066C37.8472 13.1412 36.7536 12.2609 35.1057 11.4253L32.2903 13.0069C31.4555 13.4844 30.9382 14.3275 30.9382 15.2376Z" fill="white"/>
  <path d="M28.1621 0.950445V7.68724C28.1621 8.53026 28.7237 9.2763 29.5218 9.51503C32.2408 10.3059 36.9772 12.0068 38.1226 14.5061C38.2704 14.8343 38.3591 15.1552 38.3889 15.4909C39.1497 14.0957 39.497 12.4918 39.3345 10.8654C39.1128 8.5601 37.9009 6.46371 36.0095 5.12829L29.2631 0.375988C29.1449 0.286463 29.0045 0.241699 28.8641 0.241699C28.7459 0.241699 28.6424 0.264081 28.5316 0.323767C28.3099 0.450592 28.1621 0.681871 28.1621 0.950445Z" fill="white"/>
  <path opacity="0.8" d="M48.8965 15.2376V21.661C48.8965 22.0565 48.564 22.2206 48.4605 22.2579C48.357 22.3026 48.0097 22.3996 47.6994 22.1087L42.7587 17.3303C42.4226 17.0049 42.1013 16.6609 41.8481 16.2666C41.6473 15.9546 41.5664 15.7747 41.5664 15.7747C41.2708 15.1705 41.2708 14.5886 41.559 14.0066C41.9876 13.1412 43.0812 12.2609 44.7288 11.4253L47.5442 13.0069C48.3866 13.4844 48.8965 14.3275 48.8965 15.2376Z" fill="white"/>
  <path d="M51.6769 0.949956V7.68673C51.6769 8.52977 51.1153 9.27581 50.3169 9.51454C47.5979 10.3053 42.8615 12.0063 41.7161 14.5056C41.5683 14.8339 41.4797 15.1547 41.4501 15.4904C40.689 14.0953 40.342 12.4913 40.5043 10.8649C40.7259 8.55959 41.9378 6.46322 43.8296 5.1278L50.5759 0.3755C50.6941 0.285972 50.8345 0.241211 50.9749 0.241211C51.0932 0.241211 51.1966 0.263593 51.3071 0.323278C51.5288 0.450104 51.6769 0.681379 51.6769 0.949956Z" fill="white"/>
  <path d="M1.80664 33.4072H4.38928L10.3748 47.3405H10.5522L16.5377 33.4072H19.076V49.4714H17.1917V36.687H17.0143L11.5276 49.4714H9.35506L3.86831 36.687H3.69096V49.4714H1.80664V33.4072Z" fill="white"/>
  <path d="M21.1575 43.7931C21.1575 39.9555 23.4741 37.8359 26.9102 37.8359C30.3353 37.8359 32.6629 39.9555 32.6629 43.7931C32.6629 47.6196 30.3353 49.7392 26.9102 49.7392C23.4741 49.7392 21.1575 47.6196 21.1575 43.7931ZM23.1305 43.7931C23.1305 46.6043 24.649 48.1328 26.9102 48.1328C29.1604 48.1328 30.6789 46.6043 30.6789 43.7931C30.6789 40.9708 29.1604 39.4537 26.9102 39.4537C24.649 39.4537 23.1305 40.9708 23.1305 43.7931Z" fill="white"/>
  <path d="M34.5259 38.1037H36.4102V39.4647H36.5876C36.9757 38.6615 37.6851 38.0591 39.3808 38.0591H40.9548V39.7547H39.4252C37.3082 39.7547 36.4767 40.9263 36.4767 43.2353V49.4715H34.5259V38.1037Z" fill="white"/>
  <path d="M42.4556 53.9337V38.1036H44.3621V39.6767H44.5394C45.3818 38.3603 46.7563 37.8472 48.3524 37.8472C51.2899 37.8472 53.5399 39.8552 53.5399 43.793C53.5399 47.7198 51.2899 49.7278 48.3524 49.7278C46.7897 49.7278 45.4262 49.226 44.5838 47.9652H44.4064V53.9337H42.4556ZM44.3399 43.793C44.3399 46.5486 45.803 48.0991 47.9534 48.0991C50.115 48.0991 51.5781 46.5486 51.5781 43.793C51.5781 41.0264 50.115 39.4759 47.9534 39.4759C45.803 39.4759 44.3399 41.0264 44.3399 43.793Z" fill="white"/>
  <path d="M55.4077 33.4072H57.3586V39.5092H57.5359C58.3449 38.3044 59.6863 37.8472 61.2712 37.8472C63.8983 37.8472 65.561 39.1859 65.561 41.9635V49.4714H63.6101V42.1533C63.6101 40.3014 62.6013 39.4869 60.839 39.4869C58.9104 39.4869 57.3586 40.6361 57.3586 43.1237V49.4714H55.4077V33.4072Z" fill="white"/>
  <path d="M67.3159 43.7931C67.3159 39.9555 69.6324 37.8359 73.0685 37.8359C76.4937 37.8359 78.8215 39.9555 78.8215 43.7931C78.8215 47.6196 76.4937 49.7392 73.0685 49.7392C69.6324 49.7392 67.3159 47.6196 67.3159 43.7931ZM69.2889 43.7931C69.2889 46.6043 70.8073 48.1328 73.0685 48.1328C75.3188 48.1328 76.8372 46.6043 76.8372 43.7931C76.8372 40.9708 75.3188 39.4537 73.0685 39.4537C70.8073 39.4537 69.2889 40.9708 69.2889 43.7931Z" fill="white"/>
</svg>