<svg width="179" height="220" viewBox="0 0 179 220" fill="none" xmlns="http://www.w3.org/2000/svg">
  <mask id="mask0_2377_3116" style="mask-type:alpha" maskUnits="userSpaceOnUse" x="2" y="12" width="165" height="208">
    <path d="M2 18C2 14.6863 4.68629 12 8 12H161C164.314 12 167 14.6863 167 18V214C167 217.314 164.314 220 161 220H8C4.6863 220 2 217.314 2 214V18Z" fill="#1C1C1C"/>
  </mask>
  <g mask="url(#mask0_2377_3116)">
    <path d="M94.3087 41.991L95.4755 43.5852L95.2453 43.5848C97.7466 48.9865 94.3663 55.6189 88.1152 56.4221C78.2988 57.687 66.8463 59.4633 53.5038 61.5328C41.868 63.3376 28.7948 65.3654 14.1159 67.4712L14.1157 67.4712C13.9256 67.4985 13.8279 67.575 13.7703 67.6477C13.7034 67.7322 13.6575 67.8563 13.6575 67.9997C13.6575 68.1432 13.7034 68.2673 13.7703 68.3518C13.828 68.4246 13.9257 68.5011 14.1158 68.5283L14.1159 68.5283C28.7802 70.6325 41.8425 72.6592 53.4699 74.4633C66.828 76.536 78.2922 78.3147 88.1155 79.5794C94.9991 80.464 98.4013 88.4105 94.3035 94.0105L94.3035 94.0106C93.69 94.8488 93.065 95.7034 92.4281 96.5742C88.872 101.436 84.9445 106.806 80.5741 112.679L80.5737 112.679C80.4595 112.833 80.4446 112.956 80.4553 113.048C80.4678 113.155 80.523 113.274 80.6241 113.375C80.7251 113.477 80.8449 113.532 80.9518 113.544C81.044 113.555 81.1669 113.54 81.3203 113.426L81.3208 113.425C87.1932 109.055 92.5632 105.128 97.4253 101.571C98.296 100.935 99.1504 100.31 99.9885 99.6963C105.583 95.5978 113.536 99.0006 114.42 105.884C115.685 115.7 117.462 127.153 119.532 140.495C121.337 152.131 123.365 165.205 125.471 179.884L125.471 179.884C125.498 180.074 125.575 180.172 125.648 180.229C125.732 180.296 125.856 180.342 126 180.342C126.143 180.342 126.267 180.296 126.352 180.229C126.425 180.172 126.501 180.074 126.528 179.884L126.528 179.884C128.632 165.22 130.658 152.158 132.462 140.53C134.535 127.172 136.313 115.708 137.577 105.884C138.462 99.0006 146.408 95.5988 152.008 99.6967L152.009 99.6967C152.846 100.31 153.7 100.935 154.571 101.571C159.433 105.128 164.804 109.056 170.677 113.427L170.678 113.427C170.831 113.541 170.954 113.556 171.046 113.545C171.153 113.533 171.273 113.478 171.374 113.377C171.475 113.276 171.53 113.156 171.542 113.049C171.553 112.957 171.538 112.834 171.424 112.68L171.424 112.68C167.053 106.808 163.126 101.438 159.57 96.5757C158.933 95.7048 158.308 94.8501 157.694 94.0118C153.595 88.4175 156.998 80.4651 163.881 79.5804C173.697 78.3155 185.15 76.5392 198.493 74.4696C210.129 72.6648 223.202 70.6371 237.881 68.5312L237.881 68.5312C238.071 68.504 238.169 68.4275 238.226 68.3547C238.293 68.2703 238.339 68.1462 238.339 68.0027C238.339 67.8593 238.293 67.7351 238.226 67.6507C238.169 67.5779 238.071 67.5014 237.881 67.4742L237.881 67.4741C223.193 65.3666 210.113 63.3374 198.472 61.5315C185.139 59.463 173.695 57.6876 163.887 56.4231C157.003 55.5384 153.601 47.592 157.699 41.9919L157.699 41.9919C158.313 41.1537 158.937 40.2991 159.574 39.4283C163.13 34.5662 167.058 29.1961 171.428 23.3238L171.429 23.3232C171.543 23.1699 171.558 23.047 171.547 22.9547C171.535 22.8479 171.479 22.7281 171.378 22.627C171.277 22.526 171.158 22.4707 171.051 22.4583C170.958 22.4475 170.836 22.4624 170.682 22.5767L170.682 22.5771C164.809 26.9474 159.439 30.875 154.577 34.4311C153.706 35.0679 152.852 35.6927 152.014 36.3061C146.42 40.4047 138.467 37.0018 137.582 30.1185C136.317 20.3021 134.541 8.84955 132.471 -4.49304C130.666 -16.1289 128.638 -29.2021 126.531 -43.8811L126.531 -43.8813C126.504 -44.0714 126.428 -44.1691 126.355 -44.2268C126.27 -44.2937 126.146 -44.3396 126.003 -44.3396C125.859 -44.3396 125.735 -44.2937 125.651 -44.2268C125.578 -44.1691 125.501 -44.0714 125.474 -43.8813L125.474 -43.8812C123.37 -29.2171 121.344 -16.1549 119.54 -4.52762C117.468 8.83055 115.689 20.2947 114.425 30.1181C113.541 37.0017 105.594 40.4037 99.994 36.3058L99.994 36.3057C99.1556 35.6921 98.3009 35.067 97.4299 34.43C92.5678 30.8739 87.1978 26.9463 81.3255 22.5759L81.325 22.5755C81.1716 22.4612 81.0487 22.4463 80.9565 22.4571C80.8496 22.4696 80.7298 22.5248 80.6288 22.6258C80.5278 22.7269 80.4726 22.8466 80.4601 22.9535C80.4493 23.0457 80.4642 23.1686 80.5785 23.322L80.5789 23.3225C84.9496 29.1953 88.8774 34.5656 92.4337 39.428C93.0705 40.2986 93.6953 41.153 94.3087 41.991Z" stroke="url(#paint0_linear_2377_3116)" stroke-width="2"/>
  </g>
  <g filter="url(#filter0_f_2377_3116)">
    <mask id="mask1_2377_3116" style="mask-type:alpha" maskUnits="userSpaceOnUse" x="2" y="12" width="165" height="208">
      <path d="M2 18C2 14.6863 4.68629 12 8 12H161C164.314 12 167 14.6863 167 18V214C167 217.314 164.314 220 161 220H8C4.6863 220 2 217.314 2 214V18Z" fill="#1C1C1C"/>
    </mask>
    <g mask="url(#mask1_2377_3116)">
      <path d="M94.3087 41.991L95.4755 43.5852L95.2453 43.5848C97.7466 48.9865 94.3663 55.6189 88.1152 56.4221C78.2988 57.687 66.8463 59.4633 53.5038 61.5328C41.868 63.3376 28.7948 65.3654 14.1159 67.4712L14.1157 67.4712C13.9256 67.4985 13.8279 67.575 13.7703 67.6477C13.7034 67.7322 13.6575 67.8563 13.6575 67.9997C13.6575 68.1432 13.7034 68.2673 13.7703 68.3518C13.828 68.4246 13.9257 68.5011 14.1158 68.5283L14.1159 68.5283C28.7802 70.6325 41.8425 72.6592 53.4699 74.4633C66.828 76.536 78.2922 78.3147 88.1155 79.5794C94.9991 80.464 98.4013 88.4105 94.3035 94.0105L94.3035 94.0106C93.69 94.8488 93.065 95.7034 92.4281 96.5742C88.872 101.436 84.9445 106.806 80.5741 112.679L80.5737 112.679C80.4595 112.833 80.4446 112.956 80.4553 113.048C80.4678 113.155 80.523 113.274 80.6241 113.375C80.7251 113.477 80.8449 113.532 80.9518 113.544C81.044 113.555 81.1669 113.54 81.3203 113.426L81.3208 113.425C87.1932 109.055 92.5632 105.128 97.4253 101.571C98.296 100.935 99.1504 100.31 99.9885 99.6963C105.583 95.5978 113.536 99.0006 114.42 105.884C115.685 115.7 117.462 127.153 119.532 140.495C121.337 152.131 123.365 165.205 125.471 179.884L125.471 179.884C125.498 180.074 125.575 180.172 125.648 180.229C125.732 180.296 125.856 180.342 126 180.342C126.143 180.342 126.267 180.296 126.352 180.229C126.425 180.172 126.501 180.074 126.528 179.884L126.528 179.884C128.632 165.22 130.658 152.158 132.462 140.53C134.535 127.172 136.313 115.708 137.577 105.884C138.462 99.0006 146.408 95.5988 152.008 99.6967L152.009 99.6967C152.846 100.31 153.7 100.935 154.571 101.571C159.433 105.128 164.804 109.056 170.677 113.427L170.678 113.427C170.831 113.541 170.954 113.556 171.046 113.545C171.153 113.533 171.273 113.478 171.374 113.377C171.475 113.276 171.53 113.156 171.542 113.049C171.553 112.957 171.538 112.834 171.424 112.68L171.424 112.68C167.053 106.808 163.126 101.438 159.57 96.5757C158.933 95.7048 158.308 94.8501 157.694 94.0118C153.595 88.4175 156.998 80.4651 163.881 79.5804C173.697 78.3155 185.15 76.5392 198.493 74.4696C210.129 72.6648 223.202 70.6371 237.881 68.5312L237.881 68.5312C238.071 68.504 238.169 68.4275 238.226 68.3547C238.293 68.2703 238.339 68.1462 238.339 68.0027C238.339 67.8593 238.293 67.7351 238.226 67.6507C238.169 67.5779 238.071 67.5014 237.881 67.4742L237.881 67.4741C223.193 65.3666 210.113 63.3374 198.472 61.5315C185.139 59.463 173.695 57.6876 163.887 56.4231C157.003 55.5384 153.601 47.592 157.699 41.9919L157.699 41.9919C158.313 41.1537 158.937 40.2991 159.574 39.4283C163.13 34.5662 167.058 29.1961 171.428 23.3238L171.429 23.3232C171.543 23.1699 171.558 23.047 171.547 22.9547C171.535 22.8479 171.479 22.7281 171.378 22.627C171.277 22.526 171.158 22.4707 171.051 22.4583C170.958 22.4475 170.836 22.4624 170.682 22.5767L170.682 22.5771C164.809 26.9474 159.439 30.875 154.577 34.4311C153.706 35.0679 152.852 35.6927 152.014 36.3061C146.42 40.4047 138.467 37.0018 137.582 30.1185C136.317 20.3021 134.541 8.84955 132.471 -4.49304C130.666 -16.1289 128.638 -29.2021 126.531 -43.8811L126.531 -43.8813C126.504 -44.0714 126.428 -44.1691 126.355 -44.2268C126.27 -44.2937 126.146 -44.3396 126.003 -44.3396C125.859 -44.3396 125.735 -44.2937 125.651 -44.2268C125.578 -44.1691 125.501 -44.0714 125.474 -43.8813L125.474 -43.8812C123.37 -29.2171 121.344 -16.1549 119.54 -4.52762C117.468 8.83055 115.689 20.2947 114.425 30.1181C113.541 37.0017 105.594 40.4037 99.994 36.3058L99.994 36.3057C99.1556 35.6921 98.3009 35.067 97.4299 34.43C92.5678 30.8739 87.1978 26.9463 81.3255 22.5759L81.325 22.5755C81.1716 22.4612 81.0487 22.4463 80.9565 22.4571C80.8496 22.4696 80.7298 22.5248 80.6288 22.6258C80.5278 22.7269 80.4726 22.8466 80.4601 22.9535C80.4493 23.0457 80.4642 23.1686 80.5785 23.322L80.5789 23.3225C84.9496 29.1953 88.8774 34.5656 92.4337 39.428C93.0705 40.2986 93.6953 41.153 94.3087 41.991Z" stroke="url(#paint1_linear_2377_3116)" stroke-width="2"/>
    </g>
  </g>
  <defs>
    <filter id="filter0_f_2377_3116" x="0.657471" y="0" width="178.343" height="193.342" filterUnits="userSpaceOnUse" color-interpolation-filters="sRGB">
      <feFlood flood-opacity="0" result="BackgroundImageFix"/>
      <feBlend mode="normal" in="SourceGraphic" in2="BackgroundImageFix" result="shape"/>
      <feGaussianBlur stdDeviation="6" result="effect1_foregroundBlur_2377_3116"/>
    </filter>
    <linearGradient id="paint0_linear_2377_3116" x1="132.477" y1="-17.5" x2="132.477" y2="154.795" gradientUnits="userSpaceOnUse">
      <stop stop-color="#5FDDFF"/>
      <stop offset="1" stop-color="#12FF80"/>
    </linearGradient>
    <linearGradient id="paint1_linear_2377_3116" x1="132.477" y1="-17.5" x2="132.477" y2="154.795" gradientUnits="userSpaceOnUse">
      <stop stop-color="#5FDDFF"/>
      <stop offset="1" stop-color="#12FF80"/>
    </linearGradient>
  </defs>
</svg>