<svg width="282" height="32" viewBox="0 0 282 32" fill="none" xmlns="http://www.w3.org/2000/svg">
  <path d="M15.1279 15.1038C14.0277 14.6728 12.6844 14.3135 11.0977 14.0247H11.0638C9.52205 13.7595 8.36495 13.5157 7.59464 13.2943C6.82324 13.074 6.21729 12.7745 5.77571 12.3981C5.33413 12.0217 5.11279 11.5019 5.11279 10.8378C5.11279 9.8646 5.48643 9.12348 6.23482 8.61443C6.98322 8.10537 7.96938 7.85085 9.19333 7.85085C10.5312 7.85085 11.6127 8.18237 12.4411 8.8465C13.184 9.44324 13.6387 10.2004 13.8064 11.118C13.8393 11.3009 13.9981 11.4367 14.1888 11.4377L17.9516 11.4655C18.1828 11.4677 18.3669 11.2741 18.3439 11.0495C18.2178 9.82182 17.8026 8.7064 17.1002 7.70113C16.3178 6.58356 15.2407 5.71518 13.8699 5.09598C12.4981 4.47677 10.9399 4.16663 9.19442 4.16663C7.53985 4.16663 6.04855 4.46501 4.7227 5.06282C3.39686 5.66064 2.36467 6.48945 1.62833 7.55247C0.890898 8.61443 0.522729 9.81006 0.522729 11.1372C0.522729 12.5981 0.851451 13.7702 1.5089 14.6557C2.16634 15.5412 3.02759 16.2106 4.09375 16.6641C5.15881 17.1175 6.43973 17.4769 7.93651 17.7432L8.10635 17.7763C9.69298 18.064 10.8775 18.3185 11.6598 18.5399C12.4422 18.7613 13.0591 19.0714 13.5127 19.4692C13.9664 19.8681 14.1932 20.4103 14.1932 21.0958C14.1932 22.0701 13.7856 22.8326 12.9692 23.3855C12.1529 23.9384 11.0988 24.2154 9.80694 24.2154C8.26523 24.2154 7.01828 23.8336 6.06608 23.07C5.19935 22.3749 4.68983 21.484 4.53643 20.3954C4.51013 20.2071 4.35015 20.0638 4.15511 20.0617L0.396719 20.0061C0.167709 20.0029 -0.0163753 20.1911 0.0011566 20.4135C0.107443 21.7525 0.536974 22.9588 1.28756 24.0325C2.11484 25.2164 3.25441 26.1457 4.70517 26.8205C6.15593 27.4954 7.82255 27.8333 9.70394 27.8333C11.4495 27.8333 13.0142 27.5232 14.397 26.904C15.7798 26.2848 16.8624 25.4271 17.6448 24.332C18.4271 23.2369 18.8183 22.0038 18.8183 20.6317C18.8183 19.1709 18.4775 17.9934 17.7982 17.0972C17.1177 16.201 16.228 15.5369 15.129 15.1059L15.1279 15.1038Z" fill="white"/>
  <path d="M37.9333 24.064H37.3529C37.0173 24.064 36.7531 23.9769 36.5636 23.8005C36.373 23.6251 36.2778 23.3393 36.2778 22.9429V16.6433C36.2778 14.6423 35.6281 13.1195 34.3288 12.0759C33.0295 11.0324 31.4996 10.5 29.1023 10.5C26.8394 10.5 25.0712 10.9824 23.6831 11.9282C22.4174 12.79 21.6541 13.9707 21.3931 15.4712C21.353 15.7039 21.5317 15.9186 21.7732 15.9186H25.1882C25.3592 15.9186 25.513 15.8081 25.5585 15.6465C25.7144 15.0907 26.0587 14.638 26.5903 14.2863C27.2064 13.8793 27.9384 13.6763 28.902 13.6763C30.7189 13.6763 32.0117 14.7762 32.0117 16.4138V16.926C32.0117 17.1353 31.8385 17.3043 31.6262 17.3043H28.5328C26.0241 17.3043 24.1195 17.7878 22.8202 18.7549C21.5209 19.723 20.8712 21.097 20.8712 22.877C20.8712 24.4168 21.4646 25.6262 22.6524 26.505C23.5435 27.1649 24.6078 27.5454 25.7046 27.7122C26.5427 27.8397 27.4024 27.8865 28.2426 27.7536C29.1218 27.6155 29.8364 27.2595 30.5511 26.7526C31.1931 26.2978 31.7291 25.7144 32.2185 25.0024C32.4567 24.6007 33.0826 24.7611 33.0826 25.2266V25.7856C33.0826 26.8015 33.9206 27.6261 34.9568 27.6261H37.9355C38.1488 27.6261 38.3209 27.4561 38.3209 27.2478V24.4434C38.3209 24.234 38.1477 24.0651 37.9355 24.0651L37.9333 24.064ZM32.0095 20.6666C32.0095 21.4806 31.8352 22.1895 31.4887 22.7941C30.7611 24.0619 29.4596 24.7229 27.9936 24.7229C27.1415 24.7229 26.4582 24.5252 25.9439 24.1299C25.4285 23.7335 25.1708 23.2064 25.1708 22.5465C25.1708 21.7994 25.4567 21.2224 26.0273 20.8154C26.599 20.4095 27.41 20.2054 28.4635 20.2054H31.6241C31.8374 20.2054 32.0095 20.3755 32.0095 20.5837V20.6666Z" fill="white"/>
  <path d="M50.256 4.49997H45.8353C43.5032 4.49997 41.6117 6.38585 41.6117 8.71338V10.5638C41.6117 10.7755 41.4393 10.9463 41.2282 10.9463H38.7044C38.4922 10.9463 38.3209 11.1183 38.3209 11.3289V14.198C38.3209 14.4097 38.4933 14.5806 38.7044 14.5806H41.2282C41.4404 14.5806 41.6117 14.7525 41.6117 14.9631V27.4508C41.6117 27.6624 41.784 27.8333 41.9952 27.8333H45.4399C45.6521 27.8333 45.8234 27.6614 45.8234 27.4508V14.9631C45.8234 14.7514 45.9958 14.5806 46.2069 14.5806H50.2204C50.4326 14.5806 50.6039 14.4086 50.6039 14.198V11.3289C50.6039 11.1172 50.4315 10.9463 50.2204 10.9463H46.2069C45.9947 10.9463 45.8234 10.7744 45.8234 10.5638V8.90035C45.8234 8.47697 46.167 8.13418 46.5914 8.13418H50.2549C50.4671 8.13418 50.6384 7.96225 50.6384 7.75163V4.88252C50.6384 4.67082 50.466 4.49997 50.2549 4.49997H50.256Z" fill="white"/>
  <path d="M67.6368 14.3373C66.8786 13.106 65.8426 12.1597 64.5297 11.4994C63.2169 10.8391 61.6995 10.5 59.9808 10.5C58.2621 10.5 56.7775 10.8668 55.4646 11.5824C54.1518 12.2979 53.1333 13.3091 52.409 14.618C51.6848 15.9269 51.3227 17.4612 51.3227 19.2209C51.3227 20.9806 51.6968 22.45 52.4429 23.7578C53.1902 25.0667 54.259 26.0736 55.6517 26.7775C57.0433 27.4824 58.6789 27.8333 60.5584 27.8333C62.0069 27.8333 63.3033 27.5749 64.4466 27.0582C65.5888 26.5414 66.5121 25.8322 67.2134 24.9295C67.814 24.1576 68.2243 23.3123 68.4431 22.3936C68.5 22.1555 68.3151 21.9269 68.0634 21.9269H64.5483C64.3799 21.9269 64.2322 22.0332 64.1786 22.1874C63.9313 22.8987 63.4937 23.4601 62.8668 23.8737C62.1645 24.3352 61.2936 24.567 60.2521 24.567C59.3922 24.567 58.6395 24.3915 57.994 24.0396C57.3486 23.6876 56.8398 23.1932 56.4657 22.5542C56.318 22.3022 56.1976 22.0364 56.1014 21.7621C55.9985 21.4675 55.9241 21.1634 55.8727 20.8562C55.8552 20.7488 55.8388 20.6403 55.8257 20.5319C55.7994 20.3086 55.9821 20.1129 56.2141 20.1129H68.3348C68.5317 20.1129 68.7002 19.9715 68.722 19.7812C68.7384 19.6419 68.7505 19.4994 68.756 19.3538C68.7669 19.0901 68.7724 18.8477 68.7724 18.6276C68.7724 16.9997 68.3927 15.5696 67.6346 14.3373H67.6368ZM63.9948 17.2411H56.4044C56.155 17.2411 55.9679 17.0167 56.0226 16.7807C56.144 16.2629 56.3541 15.795 56.6528 15.3772C57.0378 14.8381 57.5356 14.4255 58.1461 14.1395C58.7577 13.8535 59.425 13.711 60.1493 13.711C61.3264 13.711 62.3001 14.0194 63.0692 14.635C63.7289 15.1634 64.1654 15.878 64.3755 16.7796C64.4313 17.0167 64.2442 17.2421 63.9948 17.2421V17.2411Z" fill="white"/>
  <path d="M75.2743 4.81719V27.1828C75.2743 27.7183 75.7184 28.1526 76.2659 28.1526H77.793C78.5745 28.1526 79.2091 28.7722 79.2091 29.5376V31.0302C79.2091 31.5657 79.6532 32 80.2007 32H83.1776C83.7251 32 84.1692 31.5657 84.1692 31.0302V28.9511C84.1692 28.4156 83.7251 27.9812 83.1776 27.9812H80.7993C80.0178 27.9812 79.3832 27.3617 79.3832 26.5962V5.40271C79.3832 4.63834 80.0167 4.0177 80.7993 4.0177H83.1765C83.724 4.0177 84.1681 3.58335 84.1681 3.04787V0.969826C84.1681 0.434346 83.724 0 83.1765 0H80.1996C79.6521 0 79.208 0.434346 79.208 0.969826V2.46236C79.208 3.22672 78.5745 3.84737 77.7919 3.84737H76.2648C75.7173 3.84737 75.2732 4.28171 75.2732 4.81719H75.2743Z" fill="white"/>
  <path d="M87.2075 27.1249L91.2149 5.04433H106.39L105.733 8.75643H94.7295L93.777 13.9726H103.336L102.679 17.6527H93.12L92.0689 23.3808H103.303L102.613 27.1249H87.2075Z" fill="white"/>
  <path d="M127.87 5.04433L127.64 6.26036L119.559 15.7006L124.684 25.9089L124.486 27.1249H120.348L117.753 21.4608C117.162 20.1167 116.789 18.9221 116.636 17.8767H116.143C115.661 18.9007 114.851 20.1061 113.713 21.4928L109.114 27.1249H104.679L104.909 25.9089L113.713 15.6366L108.95 6.26036L109.18 5.04433H113.253L115.486 9.94046C116.078 11.1992 116.439 12.3832 116.57 13.4926H117.063C117.326 12.9379 117.643 12.3939 118.016 11.8605C118.41 11.3272 118.902 10.6765 119.494 9.90846L123.468 5.04433H127.87Z" fill="white"/>
  <path d="M131.344 5.04433H139.556C141.111 5.04433 142.468 5.311 143.629 5.84435C144.789 6.3777 145.676 7.13505 146.289 8.11641C146.925 9.09777 147.242 10.2285 147.242 11.5085C147.242 12.0205 147.198 12.5005 147.111 12.9485C146.716 15.0819 145.687 16.7247 144.023 17.8767C142.359 19.0287 140.18 19.6047 137.486 19.6047H132.888L131.508 27.1249H127.337L131.344 5.04433ZM138.964 8.78843H134.859L133.545 15.8606H137.881C139.282 15.8606 140.41 15.562 141.264 14.9646C142.14 14.3673 142.676 13.5352 142.873 12.4685C142.917 12.1699 142.939 11.9459 142.939 11.7965C142.939 10.8578 142.589 10.1218 141.888 9.58845C141.187 9.05511 140.213 8.78843 138.964 8.78843Z" fill="white"/>
  <path d="M147.674 27.1249L151.681 5.04433H155.853L152.535 23.3808H162.455L161.798 27.1249H147.674Z" fill="white"/>
  <path d="M177.542 4.46831C179.622 4.46831 181.385 4.93766 182.83 5.87635C184.298 6.79371 185.393 8.00974 186.115 9.52445C186.838 11.0178 187.199 12.6499 187.199 14.4206C187.199 16.6393 186.695 18.7727 185.688 20.8208C184.681 22.8475 183.192 24.5009 181.221 25.7809C179.25 27.0609 176.907 27.701 174.192 27.701C172.089 27.701 170.305 27.2423 168.837 26.3249C167.392 25.3862 166.297 24.1702 165.553 22.6768C164.83 21.1621 164.469 19.5194 164.469 17.7487C164.469 15.53 164.972 13.4072 165.98 11.3805C167.009 9.33245 168.509 7.6684 170.48 6.38837C172.473 5.10833 174.827 4.46831 177.542 4.46831ZM177.181 8.27642C175.495 8.27642 174.016 8.74576 172.746 9.68446C171.498 10.6018 170.535 11.7752 169.856 13.2046C169.199 14.6339 168.87 16.0953 168.87 17.5887C168.87 19.4021 169.341 20.9061 170.283 22.1008C171.246 23.2955 172.659 23.8929 174.52 23.8929C176.206 23.8929 177.673 23.4342 178.922 22.5168C180.192 21.5781 181.155 20.3941 181.812 18.9647C182.491 17.5353 182.83 16.074 182.83 14.5806C182.83 12.7459 182.349 11.2418 181.385 10.0685C180.444 8.87377 179.042 8.27642 177.181 8.27642Z" fill="white"/>
  <path d="M202.104 5.04433C203.528 5.04433 204.754 5.28967 205.783 5.78035C206.834 6.24969 207.634 6.91105 208.181 7.7644C208.728 8.61776 209.002 9.56712 209.002 10.6125C209.002 10.9752 208.969 11.3485 208.904 11.7325C208.685 12.8632 208.17 13.8552 207.36 14.7086C206.571 15.5406 205.531 16.1486 204.239 16.5326L204.108 17.1087C205.028 17.386 205.685 17.7914 206.079 18.3247C206.473 18.858 206.67 19.5194 206.67 20.3088C206.67 20.6928 206.615 21.1728 206.506 21.7488L205.52 27.1249H201.316L202.301 21.6528C202.367 21.2901 202.4 20.9701 202.4 20.6928C202.4 19.9461 202.192 19.4127 201.776 19.0927C201.36 18.7514 200.725 18.5807 199.871 18.5807H194.385L192.808 27.1249H188.637L192.644 5.04433H202.104ZM204.568 11.4125C204.568 10.6018 204.272 9.9618 203.681 9.49245C203.09 9.0231 202.236 8.78843 201.119 8.78843H196.159L195.042 14.9646H200.298C201.611 14.9646 202.652 14.6339 203.418 13.9726C204.185 13.2899 204.568 12.4365 204.568 11.4125Z" fill="white"/>
  <path d="M209.968 27.1249L213.976 5.04433H229.151L228.494 8.75643H217.49L216.538 13.9726H226.096L225.439 17.6527H215.881L214.83 23.3808H226.064L225.374 27.1249H209.968Z" fill="white"/>
  <path d="M242.811 5.04433C244.234 5.04433 245.46 5.28967 246.49 5.78035C247.541 6.24969 248.34 6.91105 248.887 7.7644C249.435 8.61776 249.709 9.56712 249.709 10.6125C249.709 10.9752 249.676 11.3485 249.61 11.7325C249.391 12.8632 248.876 13.8552 248.066 14.7086C247.278 15.5406 246.238 16.1486 244.946 16.5326L244.814 17.1087C245.734 17.386 246.391 17.7914 246.785 18.3247C247.179 18.858 247.376 19.5194 247.376 20.3088C247.376 20.6928 247.322 21.1728 247.212 21.7488L246.227 27.1249H242.022L243.008 21.6528C243.073 21.2901 243.106 20.9701 243.106 20.6928C243.106 19.9461 242.898 19.4127 242.482 19.0927C242.066 18.7514 241.431 18.5807 240.577 18.5807H235.091L233.515 27.1249H229.343L233.351 5.04433H242.811ZM245.274 11.4125C245.274 10.6018 244.979 9.9618 244.387 9.49245C243.796 9.0231 242.942 8.78843 241.825 8.78843H236.865L235.748 14.9646H241.004C242.318 14.9646 243.358 14.6339 244.125 13.9726C244.891 13.2899 245.274 12.4365 245.274 11.4125Z" fill="white"/>
  <path d="M254.945 19.7647C255.033 21.1728 255.481 22.2395 256.292 22.9648C257.102 23.6688 258.23 24.0209 259.675 24.0209C261.055 24.0209 262.139 23.7542 262.927 23.2208C263.737 22.6875 264.142 21.9941 264.142 21.1408C264.142 20.5434 263.967 20.0207 263.617 19.5727C263.288 19.1247 262.719 18.7514 261.909 18.4527L257.606 16.8527C256.138 16.3193 255.033 15.562 254.288 14.5806C253.565 13.5992 253.204 12.5005 253.204 11.2845C253.204 10.0471 253.543 8.91644 254.222 7.89241C254.901 6.84704 255.908 6.01502 257.244 5.39634C258.58 4.77765 260.179 4.46831 262.04 4.46831C264.208 4.46831 265.96 5.01233 267.296 6.10036C268.653 7.18839 269.485 8.69243 269.792 10.6125L269.562 11.9245H265.62C265.401 9.36445 264.087 8.08441 261.679 8.08441C260.43 8.08441 259.423 8.35109 258.657 8.88443C257.89 9.41778 257.507 10.0791 257.507 10.8685C257.507 11.4658 257.682 11.9672 258.033 12.3725C258.383 12.7565 258.941 13.0979 259.708 13.3966L263.978 14.9646C266.978 16.0953 268.478 18.026 268.478 20.7568C268.478 22.1221 268.117 23.3275 267.394 24.3729C266.693 25.4182 265.653 26.2396 264.274 26.8369C262.894 27.413 261.241 27.701 259.314 27.701C256.861 27.701 254.857 27.1036 253.303 25.9089C251.748 24.7142 250.839 23.1035 250.576 21.0768L250.839 19.7647H254.945Z" fill="white"/>
  <path d="M281.435 27.181V4.81687C281.435 4.28143 280.991 3.84711 280.443 3.84711H278.916C278.135 3.84711 277.5 3.22757 277.5 2.46219V0.969761C277.5 0.434317 277.056 0 276.508 0H273.532C272.984 0 272.54 0.434317 272.54 0.969761V3.04873C272.54 3.58418 272.984 4.0185 273.532 4.0185H275.91C276.691 4.0185 277.326 4.63804 277.326 5.40341V26.5966C277.326 27.3609 276.692 27.9815 275.91 27.9815H273.533C272.985 27.9815 272.541 28.4158 272.541 28.9513V31.0302C272.541 31.5657 272.985 32 273.533 32H276.51C277.057 32 277.501 31.5657 277.501 31.0302V29.5378C277.501 28.7735 278.135 28.1529 278.917 28.1529H280.444C280.992 28.1529 281.436 27.7186 281.436 27.1831L281.435 27.181Z" fill="white"/>
</svg>