<svg width="154" height="27" viewBox="0 0 154 27" fill="none" xmlns="http://www.w3.org/2000/svg">
<path d="M12.0911 12.7438C11.2119 12.3802 10.1381 12.077 8.87001 11.8334H8.84286C7.61063 11.6096 6.6858 11.4039 6.07012 11.2171C5.45357 11.0312 4.96926 10.7786 4.61631 10.4609C4.26337 10.1433 4.08646 9.70477 4.08646 9.14442C4.08646 8.32329 4.38511 7.69797 4.98327 7.26845C5.58143 6.83894 6.36964 6.62418 7.34789 6.62418C8.41722 6.62418 9.28163 6.90391 9.94372 7.46426C10.5375 7.96777 10.901 8.60662 11.0349 9.38083C11.0612 9.53513 11.1882 9.64972 11.3406 9.65063L14.348 9.67409C14.5328 9.67589 14.68 9.51257 14.6616 9.32308C14.5609 8.28719 14.2289 7.34606 13.6676 6.49786C13.0422 5.55491 12.1814 4.82221 11.0857 4.29976C9.98926 3.77731 8.74389 3.51563 7.34877 3.51563C6.02633 3.51563 4.83438 3.76738 3.77468 4.27179C2.71498 4.7762 1.88999 5.47551 1.30147 6.37243C0.712062 7.26845 0.417798 8.27727 0.417798 9.39707C0.417798 10.6297 0.680534 11.6186 1.20601 12.3658C1.73148 13.1129 2.41984 13.6778 3.27198 14.0604C4.12325 14.4429 5.14704 14.7461 6.34336 14.9708L6.47911 14.9988C7.74725 15.2415 8.69397 15.4563 9.31928 15.6431C9.94459 15.8298 10.4377 16.0915 10.8002 16.4272C11.1628 16.7638 11.3441 17.2212 11.3441 17.7996C11.3441 18.6217 11.0183 19.265 10.3658 19.7316C9.71339 20.1981 8.87088 20.4318 7.83833 20.4318C6.6061 20.4318 5.60946 20.1096 4.8484 19.4654C4.15565 18.8788 3.74841 18.1272 3.6258 17.2086C3.60478 17.0498 3.47692 16.9289 3.32103 16.9271L0.317083 16.8802C0.134044 16.8775 -0.0130881 17.0363 0.000924426 17.224C0.0858756 18.3537 0.429184 19.3715 1.0291 20.2775C1.69032 21.2764 2.60113 22.0605 3.76067 22.6299C4.92021 23.1992 6.25228 23.4844 7.75601 23.4844C9.15113 23.4844 10.4018 23.2227 11.507 22.7002C12.6122 22.1778 13.4775 21.4541 14.1028 20.5301C14.7281 19.6061 15.0408 18.5657 15.0408 17.408C15.0408 16.1754 14.7684 15.182 14.2254 14.4258C13.6816 13.6696 12.9704 13.1093 12.092 12.7456L12.0911 12.7438Z" fill="white"/>
<path d="M30.3187 20.304H29.8548C29.5866 20.304 29.3754 20.2305 29.224 20.0817C29.0717 19.9337 28.9955 19.6925 28.9955 19.3581V14.0428C28.9955 12.3545 28.4763 11.0696 27.4378 10.1891C26.3993 9.30859 25.1764 8.85938 23.2604 8.85938C21.4517 8.85938 20.0385 9.26645 18.9291 10.0645C17.9174 10.7916 17.3073 11.7878 17.0987 13.0538C17.0667 13.2502 17.2095 13.4313 17.4025 13.4313H20.132C20.2687 13.4313 20.3916 13.3381 20.428 13.2018C20.5526 12.7328 20.8278 12.3509 21.2527 12.0541C21.7451 11.7107 22.3301 11.5394 23.1003 11.5394C24.5525 11.5394 25.5858 12.4674 25.5858 13.8492V14.2813C25.5858 14.458 25.4473 14.6005 25.2777 14.6005H22.8052C20.8001 14.6005 19.2778 15.0085 18.2393 15.8245C17.2008 16.6413 16.6816 17.8006 16.6816 19.3025C16.6816 20.6017 17.1558 21.6221 18.1052 22.3636C18.8174 22.9204 19.6681 23.2414 20.5448 23.3822C21.2146 23.4898 21.9017 23.5292 22.5733 23.4172C23.276 23.3006 23.8472 23.0002 24.4184 22.5725C24.9315 22.1888 25.3599 21.6965 25.7511 21.0958C25.9415 20.7568 26.4417 20.8922 26.4417 21.285V21.7566C26.4417 22.6138 27.1115 23.3096 27.9397 23.3096H30.3204C30.4909 23.3096 30.6285 23.1661 30.6285 22.9904V20.6241C30.6285 20.4475 30.4901 20.3049 30.3204 20.3049L30.3187 20.304ZM25.5841 17.4375C25.5841 18.1243 25.4447 18.7224 25.1678 19.2326C24.5862 20.3023 23.546 20.86 22.3743 20.86C21.6932 20.86 21.1471 20.6932 20.736 20.3596C20.3241 20.0252 20.1181 19.5805 20.1181 19.0237C20.1181 18.3933 20.3466 17.9064 20.8027 17.563C21.2596 17.2205 21.9078 17.0484 22.7498 17.0484H25.276C25.4465 17.0484 25.5841 17.1918 25.5841 17.3676V17.4375Z" fill="white"/>
<path d="M40.1678 3.79688H36.6345C34.7705 3.79688 33.2587 5.38809 33.2587 7.35194V8.91324C33.2587 9.09185 33.121 9.23601 32.9522 9.23601H30.935C30.7654 9.23601 30.6285 9.38108 30.6285 9.55879V11.9796C30.6285 12.1582 30.7663 12.3024 30.935 12.3024H32.9522C33.1218 12.3024 33.2587 12.4474 33.2587 12.6252V23.1616C33.2587 23.3402 33.3965 23.4844 33.5652 23.4844H36.3185C36.4881 23.4844 36.625 23.3393 36.625 23.1616V12.6252C36.625 12.4465 36.7627 12.3024 36.9315 12.3024H40.1394C40.309 12.3024 40.4458 12.1573 40.4458 11.9796V9.55879C40.4458 9.38017 40.3081 9.23601 40.1394 9.23601H36.9315C36.7619 9.23601 36.625 9.09094 36.625 8.91324V7.5097C36.625 7.15248 36.8996 6.86325 37.2388 6.86325H40.1669C40.3365 6.86325 40.4734 6.71818 40.4734 6.54047V4.11965C40.4734 3.94104 40.3357 3.79688 40.1669 3.79688H40.1678Z" fill="white"/>
<path d="M54.0596 12.0971C53.4536 11.0582 52.6256 10.2598 51.5763 9.70268C50.527 9.14556 49.3142 8.85938 47.9405 8.85938C46.5668 8.85938 45.3802 9.16889 44.3309 9.77266C43.2816 10.3764 42.4675 11.2296 41.8886 12.334C41.3098 13.4383 41.0203 14.7329 41.0203 16.2176C41.0203 17.7024 41.3194 18.9422 41.9157 20.0457C42.513 21.15 43.3673 21.9996 44.4804 22.5935C45.5927 23.1883 46.8999 23.4844 48.4021 23.4844C49.5599 23.4844 50.5961 23.2664 51.5098 22.8304C52.4227 22.3944 53.1607 21.796 53.7212 21.0343C54.2013 20.383 54.5292 19.6698 54.7041 18.8947C54.7495 18.6937 54.6018 18.5008 54.4006 18.5008H51.5911C51.4565 18.5008 51.3384 18.5905 51.2956 18.7206C51.098 19.3208 50.7482 19.7945 50.2472 20.1435C49.6858 20.5328 48.9898 20.7284 48.1573 20.7284C47.47 20.7284 46.8684 20.5804 46.3525 20.2834C45.8366 19.9865 45.43 19.5693 45.131 19.0301C45.0129 18.8175 44.9167 18.5932 44.8398 18.3618C44.7576 18.1133 44.6981 17.8567 44.657 17.5974C44.643 17.5068 44.6299 17.4153 44.6194 17.3238C44.5984 17.1354 44.7445 16.9703 44.9298 16.9703H54.6175C54.7749 16.9703 54.9095 16.851 54.927 16.6904C54.9401 16.5729 54.9498 16.4527 54.9541 16.3298C54.9629 16.1073 54.9673 15.9027 54.9673 15.717C54.9673 14.3435 54.6638 13.1369 54.0579 12.0971H54.0596ZM51.1487 14.5472H45.082C44.8826 14.5472 44.7331 14.3579 44.7768 14.1587C44.8739 13.7218 45.0418 13.3271 45.2805 12.9745C45.5883 12.5197 45.9861 12.1716 46.4741 11.9303C46.9629 11.6889 47.4963 11.5687 48.0751 11.5687C49.016 11.5687 49.7942 11.8289 50.4089 12.3483C50.9362 12.7942 51.2851 13.3971 51.453 14.1578C51.4976 14.3579 51.3481 14.5481 51.1487 14.5481V14.5472Z" fill="white"/>
<path d="M60.1641 4.06451V22.9355C60.1641 23.3873 60.519 23.7538 60.9566 23.7538H62.1772C62.8018 23.7538 63.309 24.2766 63.309 24.9224V26.1817C63.309 26.6335 63.6639 27 64.1015 27H66.4809C66.9185 27 67.2734 26.6335 67.2734 26.1817V24.4275C67.2734 23.9756 66.9185 23.6092 66.4809 23.6092H64.58C63.9554 23.6092 63.4482 23.0864 63.4482 22.4406V4.55854C63.4482 3.9136 63.9545 3.38993 64.58 3.38993H66.48C66.9176 3.38993 67.2725 3.02345 67.2725 2.57164V0.818291C67.2725 0.366479 66.9176 0 66.48 0H64.1007C63.6631 0 63.3081 0.366479 63.3081 0.818291V2.07761C63.3081 2.72255 62.8018 3.24622 62.1763 3.24622H60.9557C60.5182 3.24622 60.1632 3.6127 60.1632 4.06451H60.1641Z" fill="white"/>
<path d="M72.7473 4.25616H79.3107L80.2558 12.5994C80.3609 13.5714 80.4134 14.5615 80.4134 15.5695C80.4134 16.1095 80.4046 16.5235 80.3871 16.8115H80.8859C81.2535 15.5335 81.7786 14.1294 82.4612 12.5994L86.2942 4.25616H93.0939L89.891 22.8867H85.9004L88.2107 9.38631H87.7382L82.3561 21.1856H77.683L76.3178 9.38631H75.8452L73.5349 22.8867H69.5443L72.7473 4.25616Z" fill="white"/>
<path d="M93.2855 22.8867L96.4885 4.25616H100.637L97.4336 22.8867H93.2855Z" fill="white"/>
<path d="M100.849 22.8867L104.052 4.25616H108.2L105.68 18.9176H113.319L112.637 22.8867H100.849Z" fill="white"/>
<path d="M114.694 22.8867L117.897 4.25616H130.551L129.895 8.14427H121.388L120.811 11.4924H128.188L127.532 15.2995H120.154L119.524 18.9176H128.214L127.532 22.8867H114.694Z" fill="white"/>
<path d="M134.639 16.4875C134.709 17.5315 135.016 18.3146 135.558 18.8366C136.118 19.3406 136.888 19.5926 137.868 19.5926C138.779 19.5926 139.496 19.4126 140.021 19.0526C140.564 18.6926 140.835 18.2336 140.835 17.6755C140.835 17.2615 140.721 16.9105 140.494 16.6225C140.284 16.3165 139.908 16.0645 139.365 15.8665L135.899 14.5165C134.727 14.0664 133.843 13.4094 133.248 12.5454C132.67 11.6814 132.381 10.7363 132.381 9.71031C132.381 8.63028 132.661 7.64026 133.222 6.74023C133.782 5.84021 134.613 5.12019 135.716 4.58017C136.818 4.04016 138.149 3.77015 139.706 3.77015C141.509 3.77015 142.962 4.24716 144.064 5.20119C145.185 6.13721 145.885 7.40625 146.165 9.0083L145.955 10.2233H141.964C141.929 9.3413 141.693 8.66629 141.255 8.19827C140.818 7.71226 140.17 7.46925 139.312 7.46925C138.507 7.46925 137.86 7.64926 137.37 8.00927C136.88 8.36928 136.635 8.80129 136.635 9.3053C136.635 9.70131 136.748 10.0343 136.976 10.3043C137.203 10.5743 137.553 10.8083 138.026 11.0064L141.413 12.3024C142.76 12.8424 143.714 13.5444 144.274 14.4084C144.852 15.2545 145.141 16.2355 145.141 17.3515C145.141 18.5576 144.843 19.6106 144.248 20.5106C143.653 21.4106 142.778 22.1127 141.623 22.6167C140.468 23.1207 139.094 23.3727 137.501 23.3727C136.188 23.3727 135.007 23.1387 133.957 22.6707C132.907 22.2027 132.058 21.5456 131.41 20.6996C130.78 19.8356 130.404 18.8456 130.281 17.7295L130.491 16.4875H134.639Z" fill="white"/>
<path d="M153.999 22.934V4.06424C153.999 3.61245 153.644 3.246 153.207 3.246H151.986C151.361 3.246 150.854 2.72326 150.854 2.07748V0.818236C150.854 0.366455 150.499 0 150.062 0H147.682C147.245 0 146.89 0.366455 146.89 0.818236V2.57237C146.89 3.02415 147.245 3.39061 147.682 3.39061H149.583C150.208 3.39061 150.715 3.91334 150.715 4.55913V22.4409C150.715 23.0858 150.209 23.6094 149.583 23.6094H147.683C147.246 23.6094 146.891 23.9759 146.891 24.4276V26.1818C146.891 26.6335 147.246 27 147.683 27H150.063C150.5 27 150.855 26.6335 150.855 26.1818V24.9225C150.855 24.2776 151.361 23.754 151.987 23.754H153.207C153.645 23.754 154 23.3875 154 22.9358L153.999 22.934Z" fill="white"/>
</svg>
