<svg width="51" height="65" viewBox="0 0 51 65" fill="none" xmlns="http://www.w3.org/2000/svg">
<g id="Group 1000003102">
<path id="7" fill="none" d="M15.5368 45.909C14.5822 46.9452 13.5569 48.1122 12.4486 49.4144C13.546 47.792 14.5268 46.2953 15.3966 44.9018C18.0072 40.7192 19.6394 37.4325 20.4186 34.4352C21.6873 29.5554 20.6724 25.5135 18.183 19.7707C19.4016 21.3429 20.5124 22.6062 21.5928 23.5146C22.5375 24.3089 23.4857 24.8559 24.4903 25.0935C25.5028 25.333 26.5337 25.249 27.6231 24.8445C29.7648 24.0493 32.1702 21.9981 35.2495 18.6558C36.2041 17.6197 37.2294 16.4527 38.3376 15.1505C37.2402 16.7728 36.2594 18.2695 35.3897 19.6631C32.779 23.8457 31.1469 27.1324 30.3676 30.1297C29.0989 35.0095 30.1139 39.0514 32.6032 44.7942C31.3847 43.222 30.2739 41.9587 29.1934 41.0503C28.2487 40.256 27.3006 39.709 26.296 39.4714C25.2835 39.2319 24.2526 39.3159 23.1632 39.7204C21.0214 40.5156 18.6161 42.5668 15.5368 45.909Z" stroke="url(#paint0_linear_2755_2277)"/>
<g id="9">
<path fill="none" d="M15.5368 45.909C14.5822 46.9452 13.5569 48.1122 12.4486 49.4144C13.546 47.792 14.5268 46.2953 15.3966 44.9018C18.0072 40.7192 19.6394 37.4325 20.4186 34.4352C21.6873 29.5554 20.6724 25.5135 18.183 19.7707C19.4016 21.3429 20.5124 22.6062 21.5928 23.5146C22.5375 24.3089 23.4857 24.8559 24.4903 25.0935C25.5028 25.333 26.5337 25.249 27.6231 24.8445C29.7648 24.0493 32.1702 21.9981 35.2495 18.6558C36.2041 17.6197 37.2294 16.4527 38.3376 15.1505C37.2402 16.7728 36.2594 18.2695 35.3897 19.6631C32.779 23.8457 31.1469 27.1324 30.3676 30.1297C29.0989 35.0095 30.1139 39.0514 32.6032 44.7942C31.3847 43.222 30.2739 41.9587 29.1934 41.0503C28.2487 40.256 27.3006 39.709 26.296 39.4714C25.2835 39.2319 24.2526 39.3159 23.1632 39.7204C21.0214 40.5156 18.6161 42.5668 15.5368 45.909Z" stroke="url(#paint1_linear_2755_2277)"/>
</g>
</g>
<defs>
<linearGradient id="paint0_linear_2755_2277" x1="40.2225" y1="9.46365" x2="-0.909322" y2="40.5762" gradientUnits="userSpaceOnUse">
<stop stop-color="#5FDDFF"/>
<stop offset="1" stop-color="#12FF80"/>
</linearGradient>
<linearGradient id="paint1_linear_2755_2277" x1="40.2225" y1="9.46365" x2="-0.909322" y2="40.5762" gradientUnits="userSpaceOnUse">
<stop stop-color="#5FDDFF"/>
<stop offset="1" stop-color="#12FF80"/>
</linearGradient>
</defs>
</svg>
