<svg width="43" height="57" viewBox="0 0 43 57" fill="none" xmlns="http://www.w3.org/2000/svg">
    <path d="M11.5368 41.909C10.5822 42.9452 9.55687 44.1122 8.44863 45.4144C9.54603 43.792 10.5268 42.2953 11.3966 40.9018C14.0072 36.7192 15.6394 33.4325 16.4186 30.4352C17.6873 25.5554 16.6724 21.5135 14.183 15.7707C15.4016 17.3429 16.5124 18.6062 17.5928 19.5146C18.5375 20.3089 19.4857 20.8559 20.4903 21.0935C21.5028 21.333 22.5337 21.249 23.6231 20.8445C25.7648 20.0493 28.1702 17.9981 31.2495 14.6558C32.2041 13.6197 33.2294 12.4527 34.3376 11.1505C33.2402 12.7728 32.2594 14.2695 31.3897 15.6631C28.779 19.8457 27.1469 23.1324 26.3676 26.1297C25.0989 31.0095 26.1139 35.0514 28.6032 40.7942C27.3847 39.222 26.2739 37.9587 25.1934 37.0503C24.2487 36.256 23.3006 35.709 22.296 35.4714C21.2835 35.2319 20.2526 35.3159 19.1632 35.7204C17.0214 36.5156 14.6161 38.5668 11.5368 41.909Z" stroke="#121312"/>
    <path d="M11.5368 41.909C10.5822 42.9452 9.55687 44.1122 8.44863 45.4144C9.54603 43.792 10.5268 42.2953 11.3966 40.9018C14.0072 36.7192 15.6394 33.4325 16.4186 30.4352C17.6873 25.5554 16.6724 21.5135 14.183 15.7707C15.4016 17.3429 16.5124 18.6062 17.5928 19.5146C18.5375 20.3089 19.4857 20.8559 20.4903 21.0935C21.5028 21.333 22.5337 21.249 23.6231 20.8445C25.7648 20.0493 28.1702 17.9981 31.2495 14.6558C32.2041 13.6197 33.2294 12.4527 34.3376 11.1505C33.2402 12.7728 32.2594 14.2695 31.3897 15.6631C28.779 19.8457 27.1469 23.1324 26.3676 26.1297C25.0989 31.0095 26.1139 35.0514 28.6032 40.7942C27.3847 39.222 26.2739 37.9587 25.1934 37.0503C24.2487 36.256 23.3006 35.709 22.296 35.4714C21.2835 35.2319 20.2526 35.3159 19.1632 35.7204C17.0214 36.5156 14.6161 38.5668 11.5368 41.909Z" stroke="#121312"/>
</svg>
